<?xml version="1.0" standalone="no"?>
<!DOCTYPE svg PUBLIC "-//W3C//DTD SVG 20010904//EN"
 "http://www.w3.org/TR/2001/REC-SVG-20010904/DTD/svg10.dtd">
<svg version="1.0" xmlns="http://www.w3.org/2000/svg"
 width="500.000000pt" height="600.000000pt" viewBox="0 0 500.000000 600.000000"
 preserveAspectRatio="xMidYMid meet">
<metadata>
Created by potrace 1.16, written by Peter Selinger 2001-2019
</metadata>
<g transform="translate(0.000000,600.000000) scale(0.100000,-0.100000)"
fill="#000000" stroke="none">
<path d="M2635 5531 c-11 -6 -37 -17 -59 -26 -32 -12 -36 -17 -26 -30 13 -15
5 -39 -11 -29 -5 3 -6 11 -2 17 4 8 1 7 -9 -1 -9 -7 -19 -24 -22 -38 -5 -20
-10 -23 -25 -15 -23 13 -48 -12 -57 -57 -4 -18 -12 -32 -19 -32 -8 0 -19 -16
-26 -37 -6 -20 -28 -55 -49 -77 -88 -97 -126 -203 -137 -383 -5 -89 -4 -103 9
-103 9 0 19 8 22 17 6 14 9 14 22 -6 11 -15 15 -41 14 -84 -4 -86 -2 -109 10
-102 6 3 10 30 10 58 0 29 12 95 26 147 14 52 29 109 34 126 7 31 25 57 73
105 15 16 27 33 27 39 0 6 4 18 9 28 4 9 17 35 27 56 23 49 76 105 128 136 35
21 52 24 175 26 104 1 141 -1 159 -12 24 -16 29 -40 10 -46 -10 -4 -10 -10 -1
-29 l12 -24 0 23 c1 12 8 25 16 29 21 8 33 -6 15 -17 -11 -7 -15 -27 -15 -70
0 -50 4 -64 20 -75 11 -8 25 -19 32 -25 7 -5 16 -10 20 -10 13 -1 53 -38 53
-49 0 -7 -10 -16 -22 -20 l-23 -9 22 -9 c17 -6 20 -12 13 -23 -5 -8 -10 -10
-10 -4 0 7 -12 15 -27 20 -42 11 -93 14 -93 4 0 -12 -56 -29 -78 -23 -11 3
-23 15 -26 28 -5 19 -20 28 -73 44 -76 23 -203 25 -211 3 -2 -7 -10 -12 -18
-12 -8 0 -14 -9 -14 -20 0 -23 4 -24 29 -11 22 12 61 3 61 -14 0 -7 7 -15 15
-19 8 -3 15 -17 15 -31 0 -23 -3 -25 -47 -25 -34 0 -44 3 -33 10 24 15 4 22
-39 15 -38 -6 -70 -29 -58 -41 3 -3 27 -11 54 -18 39 -10 49 -17 51 -37 8 -56
86 -76 152 -40 19 11 50 27 68 36 18 8 38 27 44 41 7 14 18 23 27 22 26 -5 40
-49 43 -135 4 -101 -6 -112 -100 -113 -69 0 -132 -21 -132 -44 0 -22 49 -53
100 -63 35 -7 44 -13 42 -27 -3 -14 0 -16 16 -7 15 8 23 7 32 -4 13 -16 4 -39
-12 -29 -27 17 -131 11 -220 -11 -21 -5 -28 -4 -28 8 0 21 -34 27 -64 12 -22
-12 -25 -11 -29 3 -2 10 -7 -2 -11 -25 -4 -23 -5 -47 -1 -53 9 -15 91 -2 135
21 43 23 72 25 64 4 -4 -9 0 -15 9 -15 9 0 19 -5 23 -11 5 -8 -11 -9 -55 -4
-82 9 -79 -7 5 -31 l65 -19 -26 -22 c-14 -13 -32 -23 -39 -23 -19 0 -42 -30
-30 -38 5 -4 14 -16 20 -27 6 -10 25 -23 42 -27 18 -5 32 -13 32 -17 0 -5 3
-16 6 -25 4 -10 1 -16 -9 -16 -8 0 -17 -7 -21 -15 -5 -13 -45 -36 -68 -39 -3
-1 -10 -4 -14 -8 -13 -14 -138 -8 -158 7 -10 8 -23 12 -27 9 -5 -3 -14 8 -21
23 -7 15 -17 31 -23 35 -6 4 2 19 19 37 17 18 26 36 23 46 -7 16 11 65 23 65
4 0 7 16 8 35 1 37 -14 56 -24 30 -4 -9 -13 -14 -21 -11 -8 3 -11 1 -8 -4 4
-6 -5 -7 -23 -4 -25 5 -30 2 -36 -20 -3 -14 -13 -26 -22 -26 -8 0 -26 -7 -39
-16 -14 -9 -25 -12 -25 -8 0 5 -5 2 -10 -6 -15 -22 -2 -107 25 -165 13 -28 25
-64 28 -80 5 -37 13 -59 39 -108 15 -29 17 -41 8 -52 -8 -9 -8 -20 -2 -31 8
-15 10 -15 15 0 4 9 11 16 16 16 14 0 51 -41 50 -54 0 -6 -3 -5 -6 2 -2 6 -8
12 -13 12 -12 0 -6 -28 8 -42 18 -18 15 -26 -10 -30 -13 -2 -23 -10 -24 -18
-2 -33 -27 -66 -64 -83 -43 -20 -72 -65 -59 -90 6 -9 4 -37 -5 -69 -19 -76 -8
-96 53 -96 25 1 49 6 53 12 4 6 11 7 15 2 4 -5 2 -11 -4 -13 -20 -7 -15 -23 5
-23 10 0 25 -11 32 -25 16 -30 17 -120 1 -138 -15 -18 6 -45 39 -49 17 -2 26
-10 28 -25 2 -13 10 -23 20 -23 12 0 13 3 4 12 -14 14 -1 40 43 86 l32 33 73
-10 c40 -5 77 -14 83 -20 12 -12 -8 -70 -31 -88 -9 -7 -12 -13 -8 -13 5 0 3
-7 -4 -15 -7 -8 -9 -15 -4 -15 5 0 0 -8 -12 -18 -16 -13 -19 -23 -13 -47 3
-16 7 -25 8 -19 0 6 12 9 24 7 19 -4 31 4 55 38 18 24 32 48 32 54 0 7 10 20
22 31 11 10 48 75 81 144 l60 125 14 -55 c8 -30 17 -66 20 -80 3 -14 9 -29 12
-35 4 -5 8 -26 10 -46 2 -26 -2 -38 -14 -43 -10 -3 -13 -11 -9 -18 4 -6 7 -31
5 -55 -1 -24 2 -43 7 -43 15 0 32 71 22 90 -7 14 -3 19 25 27 l34 11 7 -57 c4
-31 7 -66 6 -79 -1 -13 2 -20 8 -17 6 3 10 3 10 0 0 -4 11 -59 25 -123 84
-403 110 -552 125 -747 6 -77 15 -156 21 -175 5 -19 16 -125 24 -235 15 -193
45 -451 66 -565 5 -30 17 -95 25 -145 8 -49 21 -124 29 -165 8 -41 17 -109 21
-150 3 -41 12 -113 19 -160 7 -47 18 -121 25 -165 12 -85 15 -92 49 -169 33
-73 36 -49 6 49 -24 80 -34 144 -65 415 -22 186 -43 322 -95 605 -8 44 -26
188 -40 320 -14 132 -34 317 -45 410 -11 94 -22 199 -26 235 -3 36 -10 85 -16
110 -5 25 -18 101 -28 170 -19 129 -50 293 -95 509 -26 129 -25 143 15 146 15
1 20 -4 20 -21 0 -13 4 -25 9 -29 5 -3 15 -31 21 -63 7 -31 33 -147 60 -257
27 -110 51 -216 55 -235 3 -19 10 -55 16 -80 36 -169 98 -666 119 -955 14
-202 19 -242 40 -320 53 -201 102 -602 99 -818 -2 -121 7 -213 21 -232 4 -5
10 -23 14 -40 12 -47 24 -55 81 -55 l53 0 -4 153 c-6 210 -23 428 -39 512 -7
39 -16 97 -20 130 -3 33 -17 101 -30 150 -14 50 -29 140 -35 200 -10 97 -36
352 -61 590 -4 44 -13 136 -19 205 -13 144 -55 452 -71 525 -79 355 -115 473
-195 630 -37 74 -39 83 -29 114 14 40 23 31 23 -24 0 -22 4 -51 9 -64 9 -22
10 -22 26 -6 16 16 19 13 43 -41 14 -31 23 -63 20 -71 -3 -8 -2 -12 2 -9 5 3
19 -30 31 -72 12 -42 31 -104 41 -137 10 -33 23 -86 29 -118 6 -32 13 -63 17
-68 12 -19 45 -174 69 -324 13 -84 32 -175 41 -201 9 -27 20 -103 25 -169 5
-66 13 -165 19 -220 5 -55 10 -118 11 -140 0 -22 5 -51 10 -65 9 -27 21 -111
44 -325 8 -77 20 -157 25 -177 6 -21 15 -106 20 -190 5 -84 14 -170 20 -190 6
-20 14 -85 19 -145 l8 -108 2 82 c0 45 -4 115 -9 155 -6 40 -14 129 -20 198
-5 69 -16 181 -24 250 -17 138 -18 145 -12 139 5 -5 30 -160 51 -319 8 -63 19
-185 25 -270 23 -382 23 -392 6 -474 -15 -74 -15 -98 0 -83 4 4 9 30 12 59 6
52 6 53 13 18 5 -19 6 -50 3 -67 l-6 -33 156 0 156 0 0 75 c0 41 -7 173 -15
294 -9 120 -15 223 -13 227 1 5 -1 45 -5 89 -6 64 -5 86 8 111 19 40 6 84 -25
84 -29 0 -25 17 6 24 20 5 25 12 22 34 -2 15 -12 31 -25 38 -21 10 -21 12 -7
33 9 12 18 49 21 82 3 33 10 62 14 65 15 9 10 73 -7 106 -17 34 -15 83 7 135
10 26 11 40 2 65 -19 52 -7 83 37 101 70 27 86 82 57 197 -9 36 -20 104 -25
151 -8 74 -16 102 -65 204 -38 78 -57 130 -57 154 0 108 -45 344 -93 486 -60
176 -102 237 -245 357 -127 107 -175 137 -279 179 -50 20 -120 58 -155 83 -64
45 -182 106 -206 106 -7 0 -31 9 -53 21 -54 27 -71 69 -71 176 0 123 14 169
75 241 29 34 74 89 100 122 42 52 51 58 68 50 28 -15 52 1 85 57 15 27 38 62
52 80 25 34 52 110 52 149 0 30 -25 54 -56 54 -30 0 -30 1 0 48 25 40 49 103
61 162 4 19 16 62 27 95 24 72 20 122 -17 199 -25 53 -25 55 -9 98 28 70 23
104 -30 208 -27 52 -58 104 -69 115 -30 28 -94 55 -131 55 -25 0 -44 11 -82
48 -36 35 -64 52 -98 61 -61 15 -384 24 -411 12z m478 -955 c38 -19 57 -34 57
-47 0 -10 7 -22 15 -26 8 -5 16 -19 17 -33 2 -19 -3 -25 -27 -30 -16 -4 -40
-12 -53 -19 -27 -15 -37 -9 -59 32 -15 30 -29 183 -15 161 4 -6 33 -23 65 -38z
m358 -1392 c16 -250 19 -340 8 -294 -6 25 -12 52 -14 60 -2 8 -4 28 -4 43 -1
16 -5 26 -11 22 -6 -4 -9 14 -7 49 2 30 0 53 -5 50 -5 -3 -6 6 -2 21 9 35 -14
79 -33 64 -10 -9 -13 -8 -13 5 0 9 5 16 10 16 6 0 10 9 10 20 0 11 -4 20 -10
20 -5 0 -7 -8 -4 -17 5 -15 4 -15 -4 -3 -9 13 -16 61 -13 82 1 4 20 -3 44 -16
l42 -24 6 -98z m183 -80 l38 -44 -11 -87 c-7 -49 -18 -128 -25 -178 l-13 -90
-3 70 c-1 39 -2 76 -1 83 1 8 -5 23 -15 33 -10 11 -12 19 -6 19 7 0 12 5 12
11 0 5 -4 7 -10 4 -5 -3 -11 0 -11 7 -4 40 -3 218 1 217 3 0 22 -21 44 -45z
m-347 -65 c83 -188 154 -447 192 -699 39 -257 50 -343 61 -465 6 -66 15 -154
20 -195 20 -150 40 -377 40 -446 0 -46 9 -105 26 -165 24 -89 35 -144 70 -354
25 -157 48 -521 37 -590 l-6 -35 -23 32 c-13 17 -24 38 -24 45 0 8 -7 28 -16
45 -19 37 -30 108 -44 298 -13 168 -51 424 -79 537 -12 44 -34 213 -51 388
-39 396 -64 606 -107 900 -15 101 -56 294 -105 490 -11 44 -28 114 -38 155
-10 41 -23 88 -29 104 -9 21 -9 32 0 43 20 24 33 9 76 -88z m464 -65 c22 -37
21 -79 -7 -254 -8 -52 -21 -149 -29 -215 -8 -66 -21 -174 -30 -240 -8 -65 -15
-126 -15 -134 0 -38 -11 4 -20 75 -26 216 -16 479 26 659 7 33 14 87 14 119 0
59 0 59 20 41 12 -10 30 -33 41 -51z"/>
<path d="M2177 3740 c-32 -30 -66 -70 -74 -90 -24 -54 -19 -182 16 -384 18
-107 31 -215 31 -267 0 -60 4 -90 13 -98 8 -6 16 -9 19 -6 3 3 24 -2 48 -10
23 -8 43 -15 44 -15 0 0 1 15 2 33 0 17 2 57 4 87 1 32 -8 113 -24 190 -14 74
-26 153 -26 175 0 22 -7 65 -15 95 -22 84 -20 212 6 261 11 22 19 50 17 62 -3
20 -9 16 -61 -33z"/>
<path d="M2026 3570 c-27 -67 -28 -109 -11 -285 10 -93 20 -206 24 -251 6 -80
22 -115 49 -106 16 5 16 98 -2 203 -45 268 -54 403 -31 462 4 9 3 17 -3 17 -5
0 -17 -18 -26 -40z"/>
<path d="M1858 3551 c-7 -2 -24 -14 -38 -27 -28 -25 -140 -76 -210 -94 -25 -6
-64 -20 -87 -31 -24 -10 -46 -19 -51 -19 -52 0 -284 -170 -394 -290 -65 -71
-88 -102 -240 -335 -109 -168 -161 -301 -203 -521 -20 -108 -19 -118 11 -174
20 -37 25 -57 20 -82 -16 -87 -18 -123 -6 -179 l13 -60 -32 -27 c-32 -27 -32
-27 -35 -138 -2 -62 -6 -116 -9 -120 -12 -21 -18 -155 -12 -250 l7 -104 37 -5
c211 -32 331 -62 331 -83 0 -5 -46 -3 -102 4 -57 8 -145 17 -195 20 l-93 7 0
-25 c0 -25 1 -25 103 -31 110 -6 200 -23 231 -43 16 -11 -11 -12 -150 -7 -152
5 -171 4 -187 -11 -19 -20 -22 -59 -7 -103 6 -16 12 -145 13 -294 2 -145 9
-324 17 -396 l13 -133 247 0 248 0 5 29 c3 15 22 55 41 87 20 33 38 78 41 104
11 85 37 195 63 260 16 42 28 98 33 160 14 176 29 433 39 700 11 281 19 357
50 485 11 44 31 175 45 290 14 116 30 231 36 256 7 34 7 58 -1 88 -9 36 -26
142 -33 215 -1 11 -12 31 -24 44 -13 14 -23 32 -23 42 0 9 -7 25 -15 36 -20
27 -19 57 7 117 35 84 40 86 54 20 7 -32 13 -71 13 -86 1 -18 6 -27 14 -24 14
5 11 66 -4 82 -5 5 -9 23 -9 40 0 17 -5 36 -12 43 -15 15 -1 47 44 103 38 47
48 49 48 7 0 -17 3 -29 6 -25 3 3 6 23 6 44 0 31 7 46 41 81 23 23 45 42 49
42 5 0 9 -12 9 -27 4 -125 2 -188 -8 -248 -7 -38 -20 -133 -30 -210 -9 -77
-19 -131 -20 -120 -1 11 -7 99 -13 195 -12 205 -31 300 -24 120 2 -63 7 -156
9 -206 5 -91 -17 -412 -35 -513 -12 -63 -13 -107 -3 -98 11 11 70 259 98 412
14 77 33 161 41 187 24 73 52 196 69 304 8 54 18 108 22 119 3 11 2 17 -2 13
-3 -3 -17 -53 -30 -110 -14 -56 -29 -116 -35 -133 -18 -54 0 113 26 233 3 15
1 21 -6 17 -5 -3 -10 -16 -10 -28 0 -19 -1 -20 -16 -6 -8 9 -17 39 -19 70 -4
54 -4 54 41 87 25 19 48 31 51 29 3 -3 -1 -21 -8 -40 -12 -35 -8 -67 11 -67
10 0 15 40 12 91 -1 21 4 28 24 33 15 4 28 6 29 4 2 -2 0 -34 -5 -73 -4 -38
-4 -77 0 -85 9 -19 -4 -142 -24 -237 -15 -68 -83 -310 -91 -324 -9 -14 -100
-379 -150 -603 -51 -232 -82 -398 -104 -556 -5 -41 -17 -127 -25 -190 -9 -63
-23 -176 -31 -250 -13 -119 -34 -283 -65 -515 -5 -38 -9 -83 -9 -100 1 -60 16
7 28 125 7 63 19 156 27 205 7 50 18 135 24 190 37 355 84 679 126 875 69 320
176 746 213 850 66 182 131 471 111 495 -11 13 7 226 20 239 13 13 30 -36 36
-99 12 -153 26 -210 59 -256 36 -50 36 -63 2 -169 -21 -65 -46 -177 -52 -235
-7 -66 -1 -51 25 70 12 55 30 127 41 159 10 33 19 72 19 87 0 15 4 30 8 33 8
5 3 71 -17 251 -15 128 -13 236 4 284 l15 42 -55 -3 c-30 -2 -60 -5 -67 -7z
m-513 -793 c4 -24 13 -59 20 -78 15 -38 27 -260 15 -260 -4 0 -18 28 -30 63
-13 34 -31 76 -41 92 -17 28 -17 36 -2 128 9 53 20 97 24 97 4 0 10 -19 14
-42z m-135 -1675 c0 -16 -5 -139 -10 -276 -7 -187 -13 -254 -25 -277 -8 -16
-24 -65 -34 -108 -21 -88 -67 -186 -73 -155 -2 10 0 41 4 68 3 28 7 116 7 196
1 176 8 239 28 239 20 0 35 47 27 86 -4 23 -1 42 10 59 19 28 21 68 5 97 -9
17 -6 25 15 47 14 15 26 32 26 39 0 7 5 12 10 12 6 0 10 -12 10 -27z m-450
-268 c53 -10 54 -26 2 -51 -31 -16 -38 -21 -19 -18 16 4 27 2 27 -5 0 -6 -6
-11 -13 -11 -8 0 -24 -9 -37 -20 -13 -11 -27 -20 -31 -20 -4 0 -10 -14 -14
-30 l-7 -31 -19 22 c-10 12 -19 29 -20 38 -2 60 -9 93 -19 106 -13 15 -12 16
30 28 18 4 70 1 120 -8z"/>
<path d="M2057 2837 c-10 -39 -28 -118 -42 -175 -13 -57 -32 -142 -40 -190 -9
-48 -25 -136 -36 -197 -11 -60 -31 -184 -44 -275 -28 -193 -69 -428 -83 -485
-6 -22 -16 -74 -22 -115 -7 -41 -21 -111 -31 -155 -10 -44 -18 -87 -18 -95 1
-25 26 73 69 270 66 298 90 427 106 555 21 176 76 486 124 710 26 120 42 216
38 221 -2 2 -12 -29 -21 -69z"/>
<path d="M2292 2723 c-7 -15 -16 -101 -22 -191 -5 -91 -22 -233 -39 -325 -16
-89 -34 -200 -41 -247 -6 -47 -15 -94 -20 -105 -9 -22 -30 -120 -30 -138 0 -7
10 4 21 23 12 19 25 37 30 40 10 7 8 50 -3 50 -4 0 -8 5 -8 10 0 6 7 10 15 10
9 0 15 9 15 23 0 13 3 27 7 31 7 7 8 8 17 116 4 41 16 94 26 116 10 23 19 50
20 60 1 40 10 132 19 194 32 213 27 419 -7 333z"/>
<path d="M1831 2731 c-1 -7 -18 -70 -40 -140 -21 -69 -46 -153 -54 -186 -20
-74 -129 -583 -156 -725 -44 -231 -52 -285 -81 -535 -16 -143 -37 -312 -45
-375 -34 -257 -50 -418 -41 -409 6 6 23 105 46 273 11 76 22 145 24 155 7 21
42 313 56 462 16 173 55 426 84 545 8 32 26 111 40 174 91 405 139 609 157
675 11 42 18 81 15 88 -3 8 -5 8 -5 -2z"/>
<path d="M2620 2715 c0 -9 -11 -20 -24 -25 -38 -14 -64 -56 -70 -113 -3 -29 0
-142 8 -252 7 -112 14 -169 15 -130 1 75 11 102 31 90 8 -5 10 -23 6 -56 -4
-29 -2 -57 4 -69 9 -17 6 -26 -16 -50 -15 -16 -31 -27 -34 -25 -13 8 -20 -171
-10 -256 10 -91 25 -120 78 -154 17 -11 31 -28 32 -37 0 -23 13 -23 33 0 9 10
28 19 42 20 75 6 136 62 161 149 21 71 8 140 -39 210 -35 53 -114 110 -164
119 -18 3 -33 10 -33 15 0 5 -7 9 -15 9 -8 0 -15 5 -15 10 0 6 5 10 10 10 6 0
10 15 10 34 0 32 2 34 46 41 34 5 49 3 55 -7 6 -9 9 -10 9 -1 0 7 17 24 39 38
59 39 91 107 91 192 0 59 -4 76 -28 114 -16 24 -38 51 -48 60 -22 18 -101 49
-126 49 -9 0 -18 7 -22 15 -7 20 -26 19 -26 0z"/>
<path d="M3131 2425 c-1 -24 25 -248 39 -330 5 -33 17 -136 26 -230 9 -93 17
-183 19 -200 1 -16 5 -37 8 -45 10 -27 48 -261 62 -379 37 -299 70 -470 87
-453 6 6 5 25 -2 48 -14 52 -41 217 -45 279 -4 73 -23 211 -50 370 -13 77 -31
212 -39 300 -9 88 -21 180 -26 205 -5 25 -9 56 -9 70 0 39 -48 332 -60 360 -8
21 -10 22 -10 5z"/>
<path d="M1817 2210 c-25 -135 -49 -252 -70 -355 -47 -221 -76 -369 -87 -445
-18 -114 -18 -119 -29 -210 -39 -330 -8 -232 49 155 10 72 23 150 29 175 5 25
17 92 26 150 16 108 39 234 76 420 12 59 19 115 17 125 -3 14 -6 9 -11 -15z"/>
<path d="M3131 1843 c-1 -13 -6 -23 -12 -23 -6 0 -8 -7 -5 -16 3 -8 -1 -25 -9
-37 -12 -18 -12 -31 -4 -62 6 -22 16 -46 22 -53 13 -16 14 -52 4 -69 -5 -7
-23 -20 -42 -29 -27 -13 -33 -21 -33 -44 1 -16 4 -27 9 -25 10 7 39 -53 39
-80 0 -14 -8 -25 -20 -28 -14 -4 -20 -14 -20 -35 0 -29 2 -30 58 -39 48 -7 57
-11 55 -28 -10 -90 -22 -122 -52 -150 -19 -16 -21 -26 -15 -59 4 -24 16 -47
29 -58 21 -16 22 -22 14 -59 -5 -23 -15 -51 -20 -62 -12 -22 -11 -22 66 6 36
14 41 14 49 -1 5 -8 9 -28 8 -44 0 -15 3 -28 8 -28 11 0 4 -38 -10 -55 -28
-34 -79 -150 -70 -159 13 -13 52 -16 65 -5 6 4 20 7 30 5 18 -3 20 -11 20 -87
l0 -84 38 -3 c36 -3 37 -5 37 -40 0 -20 -6 -58 -14 -83 -8 -25 -11 -50 -8 -55
4 -5 24 -11 45 -13 27 -2 39 2 43 13 7 18 -10 95 -31 141 -22 49 -55 185 -75
315 -6 36 -17 85 -25 110 -17 51 -75 383 -106 600 -11 80 -23 152 -26 160 -3
8 -7 43 -10 77 -5 73 -30 219 -32 186z"/>
<path d="M2130 1672 c0 -10 -4 -22 -9 -27 -11 -12 -53 -181 -53 -215 0 -14 -4
-32 -9 -41 -10 -20 -83 -294 -109 -409 -19 -83 -61 -243 -74 -278 -8 -20 -30
-89 -51 -152 -20 -63 -40 -122 -44 -130 -5 -9 -12 -31 -16 -50 -7 -32 -79
-313 -91 -352 -8 -28 71 -25 86 2 6 11 17 20 24 20 21 0 35 23 41 64 3 29 -1
46 -20 74 -22 32 -37 97 -18 79 3 -4 12 2 20 13 9 12 26 20 42 20 24 0 30 5
34 30 7 35 8 40 27 103 9 28 22 49 32 53 10 3 16 10 12 15 -3 6 0 17 7 25 9
11 9 18 1 26 -6 6 -8 16 -6 23 3 7 -2 29 -10 50 -19 45 -19 46 -3 44 6 -2 38
10 70 25 65 30 71 48 32 94 -14 17 -25 40 -25 52 0 12 -7 28 -15 36 -21 22
-20 64 3 65 9 1 20 1 24 0 4 0 17 17 29 39 13 22 29 40 36 40 8 0 13 13 13 34
0 19 5 38 12 42 8 5 6 9 -7 14 -13 4 -19 19 -22 48 -2 23 0 42 5 42 17 0 67
54 68 74 1 11 -11 32 -25 47 -33 32 -56 99 -35 99 7 0 18 9 24 21 7 11 20 29
31 40 10 10 19 25 19 32 -1 7 -5 6 -13 -4 -11 -15 -13 -10 -15 28 -2 53 4 68
23 53 10 -8 15 -8 20 1 11 16 -24 35 -57 31 -3 -1 -4 17 -1 38 3 22 3 40 -1
40 -3 0 -6 -8 -6 -18z"/>
<path d="M1695 1015 c-4 -22 -29 -98 -55 -170 -42 -113 -72 -216 -135 -455 -8
-30 -31 -122 -50 -205 -20 -82 -38 -158 -41 -167 -4 -13 0 -18 14 -18 16 0 21
9 26 49 3 26 17 90 30 142 13 52 36 146 50 209 56 242 87 358 117 440 40 109
60 181 56 200 -2 8 -7 -3 -12 -25z"/>
<path d="M1747 778 c-19 -57 -42 -128 -50 -158 -9 -30 -25 -86 -37 -125 -22
-74 -110 -405 -110 -417 0 -18 18 -6 23 15 3 12 19 72 35 132 76 283 126 458
157 553 18 56 29 102 25 102 -4 0 -23 -46 -43 -102z"/>
</g>
</svg>
